# xmcd CD database file
#
# Track frame offsets:
#	150
#	23792
#	47397
#	69590
#
# Disc length: 1222 seconds
#
# Revision: 0
# Processed by: cddbd v1.5.2PL0 Copyright (c) Steve Scherf et al.
# Submitted via: CDex 1.70beta2
#
DISCID=2904c404
DTITLE=北島三郎 - 風のロマン/弁慶岬
DYEAR=1997
DGENRE=Blues
TTITLE0=風のロマン
TTITLE1=風のロマン (カラオケ)
TTITLE2=弁慶岬
TTITLE3=弁慶岬 (カラオケ)
EXTD=YEAR: 1997
EXTT0=
EXTT1=
EXTT2=
EXTT3=
PLAYORDER=
